<?xml version="1.0" encoding="UTF-8"?>
<svg width="68px" height="50px" viewBox="0 0 68 50" version="1.1" xmlns="http://www.w3.org/2000/svg" xmlns:xlink="http://www.w3.org/1999/xlink">
    <!-- Generator: Sketch 41.2 (35397) - http://www.bohemiancoding.com/sketch -->
    <title>Shape</title>
    <desc>Created with Sketch.</desc>
    <defs></defs>
    <g id="Page-1" stroke="none" stroke-width="1" fill="none" fill-rule="evenodd">
        <g id="noun_1042342_cc" fill="#000000">
            <path d="M46.544029,19.389001 C45.421693,20.036005 44.337957,20.748911 43.298461,21.523759 C42.412857,22.183895 41.159788,22.001116 40.499652,21.115512 C39.839516,20.229908 40.022294,18.976839 40.907898,18.316703 C42.10133,17.42711 43.346958,16.610245 44.638021,15.870889 C44.224389,14.656433 44,13.354421 44,12 C44,5.372583 49.372583,0 56,0 C62.627417,0 68,5.372583 68,12 C68,18.627417 62.627417,24 56,24 C52.159559,24 48.740483,22.195916 46.544029,19.389001 L46.544029,19.389001 Z M56,20 C60.418278,20 64,16.418278 64,12 C64,7.581722 60.418278,4 56,4 C51.581722,4 48,7.581722 48,12 C48,16.418278 51.581722,20 56,20 Z M34.74822,24.106658 C35.461894,23.263603 36.723873,23.158719 37.566929,23.872394 C38.409984,24.586068 38.514867,25.848047 37.801193,26.691103 C36.580271,28.133362 35.484593,29.677438 34.527521,31.306047 C33.967888,32.258351 32.74222,32.576674 31.789915,32.017041 C30.83761,31.457408 30.519287,30.23174 31.07892,29.279435 C32.151873,27.453636 33.379958,25.722969 34.74822,24.106658 Z M2,24 C0.895431,24 0,23.104569 0,22 C0,20.895431 0.895431,20 2,20 C4.180607,20 6.330154,20.249659 8.418177,20.7395 C9.493551,20.991779 10.160802,22.068054 9.908523,23.143428 C9.656245,24.218802 8.57997,24.886053 7.504596,24.633774 C5.715486,24.214056 3.872473,24 2,24 Z M14.33982,27.410745 C13.392965,26.84194 13.086495,25.613255 13.655299,24.6664 C14.224104,23.719544 15.452789,23.413074 16.399645,23.981878 C18.251365,25.094263 19.969111,26.417877 21.517824,27.923759 C22.309746,28.69378 22.327501,29.959986 21.55748,30.751908 C20.787459,31.543831 19.521253,31.561585 18.729331,30.791564 C17.400785,29.49976 15.927474,28.364496 14.33982,27.410745 Z M23.172862,36.68828 C22.651447,35.714525 23.018142,34.502449 23.991898,33.981035 C24.965654,33.45962 26.177729,33.826315 26.699144,34.80007 C27.717891,36.702608 28.514057,38.719154 29.068865,40.814215 C29.351628,41.881979 28.715258,42.976796 27.647494,43.259559 C26.579731,43.542321 25.484913,42.905951 25.202151,41.838188 C24.727144,40.044473 24.045448,38.317858 23.172862,36.68828 Z M12,50 C10.895431,50 10,49.104569 10,48 C10,46.895431 10.895431,46 12,46 L44,46 C45.104569,46 46,46.895431 46,48 C46,49.104569 45.104569,50 44,50 L12,50 Z" id="Shape"></path>
        </g>
    </g>
</svg>